# Blender v2.91.2 OBJ File: ''
# www.blender.org
g Cube
v 0.028767 0.028767 0.028767
v 0.028767 0.028767 -0.028767
v 0.028767 -0.028767 0.028767
v 0.028767 -0.028767 -0.028767
v -0.028767 0.028767 0.028767
v -0.028767 0.028767 -0.028767
v -0.028767 -0.028767 0.028767
v -0.028767 -0.028767 -0.028767
v 0.015186 -0.015186 0.068922
v -0.015186 -0.015186 0.068922
v 0.015186 0.015186 0.068922
v -0.015186 0.015186 0.068922
vt 0.625000 0.250000
vt 0.625000 0.000000
vt 0.625000 0.000000
vt 0.625000 0.250000
vt 0.375000 0.750000
vt 0.625000 0.750000
vt 0.625000 1.000000
vt 0.375000 1.000000
vt 0.375000 0.000000
vt 0.375000 0.250000
vt 0.125000 0.500000
vt 0.375000 0.500000
vt 0.125000 0.750000
vt 0.625000 0.500000
vt 0.625000 0.500000
vt 0.875000 0.500000
vt 0.875000 0.750000
vt 0.625000 0.750000
vt 0.625000 1.000000
vn -0.9473 0.0000 0.3204
vn 0.0000 -1.0000 0.0000
vn -1.0000 0.0000 0.0000
vn 0.0000 0.0000 -1.0000
vn 1.0000 0.0000 0.0000
vn 0.0000 1.0000 0.0000
vn 0.0000 0.0000 1.0000
vn 0.9473 0.0000 0.3204
vn 0.0000 0.9473 0.3204
vn 0.0000 -0.9473 0.3204
s off
f 5/1/1 7/2/1 10/3/1 12/4/1
f 4/5/2 3/6/2 7/7/2 8/8/2
f 8/9/3 7/2/3 5/1/3 6/10/3
f 6/11/4 2/12/4 4/5/4 8/13/4
f 2/12/5 1/14/5 3/6/5 4/5/5
f 6/10/6 5/1/6 1/14/6 2/12/6
f 11/15/7 12/16/7 10/17/7 9/18/7
f 3/6/8 1/14/8 11/15/8 9/18/8
f 1/14/9 5/1/9 12/4/9 11/15/9
f 7/7/10 3/6/10 9/18/10 10/19/10
